# xmcd CD database file
#
# Track frame offsets:
#	150
#	21383
#	47711
#	68864
#	92349
#	117986
#	140442
#	156804
#	178495
#	203271
#	224974
#	246781
#	269579
#	290957
#	313439
#
# Disc length: 4504 seconds
#
# Revision: 0
# Processed by: cddbd v1.5.1PL2 Copyright (c) Steve Scherf et al.
# Submitted via: CDex 1.51
#
DISCID=f511960f
DTITLE=La India - La Salsa y su historia
DYEAR=2004
DGENRE=Salsa
TTITLE0=Dicen que soy
TTITLE1=Costumbres
TTITLE2=Ese Hombre
TTITLE3=Me cansé de ser la otra
TTITLE4=Mi primera Rumba
TTITLE5=Nunca voy a olvidarte
TTITLE6=Que te pedí
TTITLE7=No me conviene
TTITLE8=Si tu eres mi hombre
TTITLE9=Ella o yo
TTITLE10=Que ganas de no verte nunca más
TTITLE11=Vivir sin tí
TTITLE12=Hazme el amor
TTITLE13=Sola
TTITLE14=La voz de la experiencia
EXTD=YEAR: 2004
EXTT0=
EXTT1=
EXTT2=
EXTT3=
EXTT4=
EXTT5=
EXTT6=
EXTT7=
EXTT8=
EXTT9=
EXTT10=
EXTT11=
EXTT12=
EXTT13=
EXTT14=
PLAYORDER=
